{
.appVersion = "3151";
.formatVersion = 3;
date = "2023-04-01 08:46:24 +0000";
familyName = Chabans;
fontMaster = (
{
id = m01;
metricValues = (
{
over = 16;
pos = 800;
},
{
over = 16;
pos = 700;
},
{
over = 16;
pos = 500;
},
{
over = -16;
},
{
over = -16;
pos = -200;
}
);
name = Regular;
}
);
glyphs = (
{
glyphname = A;
lastChange = "2023-04-03 16:09:03 +0000";
layers = (
{
hints = (
{
origin = (0,1);
place = (379, -86);
type = Stem;
}
);
layerId = m01;
shapes = (
{
closed = 1;
nodes = (
(592,45,l),
(379,700,l),
(313,680,l),
(342,665,l),
(352,504,l),
(505,42,l)
);
},
{
closed = 1;
nodes = (
(94,3,o),
(186,3,o),
(259,0,c),
(265,13,o),
(274,39,o),
(271,53,c),
(247,59,o),
(199,65,o),
(172,65,cs),
(97,65,l),
(72,60,o),
(49,53,o),
(14,48,c),
(11,34,o),
(14,13,o),
(21,0,c)
);
},
{
closed = 1;
nodes = (
(492,9,o),
(587,9,o),
(660,6,c),
(666,19,o),
(669,44,o),
(666,58,c),
(642,64,o),
(615,71,o),
(588,71,c),
(501,71,l),
(476,66,o),
(447,59,o),
(412,59,c),
(409,45,o),
(412,19,o),
(419,6,c)
);
},
{
closed = 1;
nodes = (
(172,65,l),
(379,700,l),
(351,700,o),
(336,697,o),
(313,687,c),
(97,65,l)
);
},
{
closed = 1;
nodes = (
(468,264,l),
(468,319,l),
(196,319,l),
(196,264,l)
);
}
);
width = 680;
}
);
unicode = 65;
},
{
glyphname = B;
lastChange = "2023-04-03 14:00:03 +0000";
layers = (
{
layerId = m01;
shapes = (
{
closed = 1;
nodes = (
(65,2,o),
(250,1,o),
(321,-1,cs),
(500,-6,o),
(562,134,o),
(562,215,cs),
(562,323,o),
(496,371,o),
(394,386,c),
(461,406,o),
(508,483,o),
(506,537,cs),
(503,623,o),
(454,700,o),
(302,701,cs),
(240,701,o),
(87,697,o),
(14,700,c),
(7,687,o),
(4,665,o),
(7,651,c),
(42,646,o),
(71,634,o),
(96,629,c),
(101,442,o),
(99,256,o),
(95,69,c),
(70,64,o),
(39,53,o),
(4,48,c),
(1,34,o),
(4,13,o),
(11,0,c)
);
},
{
closed = 1;
nodes = (
(184,333,l),
(210,333,o),
(236,334,o),
(263,332,c),
(346,332,o),
(464,312,o),
(464,216,cs),
(464,108,o),
(412,71,o),
(347,70,cs),
(184,67,l)
);
},
{
closed = 1;
nodes = (
(184,634,l),
(309,637,o),
(408,622,o),
(408,541,cs),
(408,474,o),
(389,401,o),
(278,402,cs),
(184,403,l)
);
}
);
width = 600;
}
);
unicode = 66;
},
{
glyphname = C;
lastChange = "2023-04-03 13:34:58 +0000";
layers = (
{
hints = (
{
origin = (0,33);
target = (0,2);
type = Stem;
}
);
layerId = m01;
shapes = (
{
closed = 1;
nodes = (
(451,493,o),
(472,492,o),
(494,500,c),
(510,676,l),
(458,687,o),
(399,700,o),
(343,700,cs),
(156,700,o),
(31,536,o),
(31,346,cs),
(31,154,o),
(137,0,o),
(293,0,cs),
(370,0,o),
(437,13,o),
(510,30,c),
(494,199,l),
(478,203,o),
(445,204,o),
(429,199,c),
(420,88,l),
(270,47,o),
(235,59,o),
(169,166,cs),
(137,217,o),
(118,288,o),
(118,364,cs),
(118,437,o),
(171,593,o),
(235,621,cs),
(279,640,o),
(372,637,o),
(413,636,c),
(429,500,l)
);
}
);
width = 550;
}
);
unicode = 67;
},
{
glyphname = D;
lastChange = "2023-04-03 16:11:28 +0000";
layers = (
{
layerId = m01;
shapes = (
{
closed = 1;
nodes = (
(100,3,o),
(210,1,o),
(284,0,cs),
(493,2,o),
(593,147,o),
(593,399,cs),
(593,589,o),
(499,700,o),
(343,700,cs),
(254,700,ls),
(181,700,o),
(103,697,o),
(30,700,c),
(23,687,o),
(20,672,o),
(23,658,c),
(58,653,o),
(72,640,o),
(97,635,c),
(97,65,l),
(72,60,o),
(58,47,o),
(23,42,c),
(20,28,o),
(23,13,o),
(30,0,c)
);
},
{
closed = 1;
nodes = (
(184,636,l),
(261,639,ls),
(401,644,o),
(506,589,o),
(506,363,cs),
(506,312,o),
(509,166,o),
(433,94,c),
(407,73,o),
(377,63,o),
(346,62,c),
(184,66,l)
);
}
);
width = 630;
}
);
unicode = 68;
},
{
glyphname = E;
lastChange = "2023-04-03 14:21:03 +0000";
layers = (
{
layerId = m01;
shapes = (
{
closed = 1;
nodes = (
(14,687,o),
(11,665,o),
(14,651,c),
(49,646,o),
(72,640,o),
(97,635,c),
(184,635,l),
(386,635,l),
(395,601,o),
(403,568,o),
(408,534,c),
(424,531,o),
(442,531,o),
(459,534,c),
(457,589,o),
(457,645,o),
(459,700,c),
(386,697,o),
(94,697,o),
(21,700,c)
);
},
{
closed = 1;
nodes = (
(97,42,l),
(184,42,l),
(184,658,l),
(97,658,l)
);
},
{
closed = 1;
nodes = (
(173,342,l),
(240,342,o),
(308,341,o),
(375,337,c),
(376,355,o),
(388,373,o),
(390,391,c),
(384,397,l),
(173,397,l)
);
},
{
closed = 1;
nodes = (
(94,3,o),
(386,3,o),
(459,0,c),
(457,55,o),
(457,111,o),
(459,166,c),
(442,169,o),
(424,169,o),
(408,166,c),
(403,132,o),
(395,99,o),
(386,65,c),
(184,65,l),
(97,65,l),
(72,60,o),
(49,54,o),
(14,49,c),
(11,35,o),
(14,13,o),
(21,0,c)
);
}
);
width = 490;
}
);
unicode = 69;
},
{
glyphname = F;
lastChange = "2023-04-03 14:17:40 +0000";
layers = (
{
hints = (
{
place = (408, 30);
place = (408, 30);
type = Stem;
}
);
layerId = m01;
shapes = (
{
closed = 1;
nodes = (
(94,3,o),
(186,3,o),
(259,0,c),
(265,13,o),
(274,39,o),
(271,53,c),
(247,59,o),
(211,65,o),
(184,65,c),
(97,65,l),
(72,60,o),
(49,53,o),
(14,48,c),
(11,34,o),
(14,13,o),
(21,0,c)
);
},
{
closed = 1;
nodes = (
(14,687,o),
(11,665,o),
(14,651,c),
(49,646,o),
(72,640,o),
(97,635,c),
(184,635,l),
(386,635,l),
(395,601,o),
(403,560,o),
(408,526,c),
(424,523,o),
(442,523,o),
(459,526,c),
(457,581,o),
(457,645,o),
(459,700,c),
(386,697,o),
(94,697,o),
(21,700,c)
);
},
{
closed = 1;
nodes = (
(97,42,l),
(184,42,l),
(184,658,l),
(97,658,l)
);
},
{
closed = 1;
nodes = (
(173,342,l),
(375,337,l),
(376,355,o),
(388,373,o),
(390,391,c),
(384,397,l),
(173,397,l)
);
}
);
width = 470;
}
);
unicode = 70;
},
{
glyphname = G;
lastChange = "2023-04-03 14:03:30 +0000";
layers = (
{
layerId = m01;
shapes = (
{
closed = 1;
nodes = (
(451,493,o),
(472,492,o),
(494,500,c),
(510,676,l),
(458,687,o),
(399,700,o),
(343,700,cs),
(156,700,o),
(31,536,o),
(31,346,cs),
(31,154,o),
(137,0,o),
(293,0,cs),
(370,0,o),
(428,33,o),
(501,50,c),
(497,264,l),
(481,268,o),
(426,269,o),
(410,264,c),
(411,108,l),
(261,67,o),
(235,59,o),
(169,166,cs),
(137,217,o),
(118,288,o),
(118,364,cs),
(118,437,o),
(171,593,o),
(235,621,cs),
(279,640,o),
(372,637,o),
(413,636,c),
(429,500,l)
);
},
{
closed = 1;
nodes = (
(321,291,o),
(318,267,o),
(321,253,c),
(356,248,o),
(386,244,o),
(411,239,c),
(498,239,l),
(525,239,o),
(551,249,o),
(575,255,c),
(578,269,o),
(575,291,o),
(569,304,c),
(496,301,o),
(401,301,o),
(328,304,c)
);
}
);
width = 600;
}
);
unicode = 71;
},
{
glyphname = H;
lastChange = "2023-04-03 13:59:20 +0000";
layers = (
{
hints = (
{
origin = (0,9);
target = (0,8);
type = Stem;
},
{
origin = (2,9);
target = (2,8);
type = Stem;
}
);
layerId = m01;
shapes = (
{
closed = 1;
nodes = (
(94,3,o),
(186,3,o),
(259,0,c),
(265,13,o),
(274,39,o),
(271,53,c),
(247,59,o),
(211,65,o),
(184,65,c),
(97,65,l),
(72,60,o),
(49,53,o),
(14,48,c),
(11,34,o),
(14,13,o),
(21,0,c)
);
},
{
closed = 1;
nodes = (
(14,687,o),
(11,665,o),
(14,651,c),
(49,646,o),
(72,640,o),
(97,635,c),
(184,635,l),
(211,635,o),
(246,646,o),
(270,652,c),
(273,666,o),
(270,687,o),
(264,700,c),
(191,697,o),
(94,697,o),
(21,700,c)
);
},
{
closed = 1;
nodes = (
(505,3,o),
(600,3,o),
(673,0,c),
(679,13,o),
(682,38,o),
(679,52,c),
(655,58,o),
(628,65,o),
(601,65,c),
(514,65,l),
(489,60,o),
(460,53,o),
(425,53,c),
(422,39,o),
(425,13,o),
(432,0,c)
);
},
{
closed = 1;
nodes = (
(430,687,o),
(427,672,o),
(430,658,c),
(465,658,o),
(489,640,o),
(514,635,c),
(601,635,l),
(628,635,o),
(653,652,o),
(677,658,c),
(680,672,o),
(677,687,o),
(671,700,c),
(598,697,o),
(510,697,o),
(437,700,c)
);
},
{
closed = 1;
nodes = (
(97,42,l),
(184,42,l),
(184,658,l),
(97,658,l)
);
},
{
closed = 1;
nodes = (
(514,41,l),
(601,41,l),
(600,247,o),
(600,453,o),
(601,659,c),
(514,659,l)
);
},
{
closed = 1;
nodes = (
(173,342,l),
(526,342,l),
(526,397,l),
(173,397,l)
);
}
);
width = 700;
}
);
unicode = 72;
},
{
glyphname = I;
lastChange = "2023-04-03 14:51:55 +0000";
layers = (
{
layerId = m01;
shapes = (
{
closed = 1;
nodes = (
(95,42,l),
(182,42,l),
(182,658,l),
(95,658,l)
);
},
{
closed = 1;
nodes = (
(14,687,o),
(11,665,o),
(14,651,c),
(49,646,o),
(72,640,o),
(97,635,c),
(184,635,l),
(211,635,o),
(246,646,o),
(270,652,c),
(273,666,o),
(270,687,o),
(264,700,c),
(191,697,o),
(94,697,o),
(21,700,c)
);
},
{
closed = 1;
nodes = (
(94,3,o),
(186,3,o),
(259,0,c),
(265,13,o),
(274,39,o),
(271,53,c),
(247,59,o),
(211,65,o),
(184,65,c),
(97,65,l),
(72,60,o),
(49,53,o),
(14,48,c),
(11,34,o),
(14,13,o),
(21,0,c)
);
}
);
width = 280;
}
);
unicode = 73;
},
{
glyphname = J;
lastChange = "2023-04-03 14:08:39 +0000";
layers = (
{
layerId = m01;
shapes = (
{
closed = 1;
nodes = (
(14,687,o),
(11,665,o),
(14,651,c),
(49,646,o),
(72,640,o),
(97,635,c),
(97,51,l),
(184,52,l),
(184,635,l),
(211,635,o),
(246,646,o),
(270,652,c),
(273,666,o),
(270,687,o),
(264,700,c),
(191,697,o),
(94,697,o),
(21,700,c)
);
},
{
closed = 1;
nodes = (
(-22,-112,o),
(32,-98,o),
(59,-65,cs),
(89,-29,o),
(97,11,o),
(97,46,cs),
(97,51,l),
(184,52,l),
(184,58,l),
(184,52,ls),
(184,-3,o),
(170,-38,o),
(138,-78,cs),
(103,-122,o),
(15,-144,o),
(-16,-153,c),
(-24,-143,o),
(-27,-137,o),
(-29,-122,c)
);
}
);
width = 280;
}
);
unicode = 74;
},
{
glyphname = K;
lastChange = "2023-04-03 16:24:33 +0000";
layers = (
{
hints = (
{
origin = (0,0);
place = (182, -75);
type = Stem;
},
{
origin = (0,2);
place = (428, 87);
type = Stem;
}
);
layerId = m01;
shapes = (
{
closed = 1;
nodes = (
(182,287,l),
(503,635,l),
(428,635,l),
(107,287,l)
);
},
{
closed = 1;
nodes = (
(94,3,o),
(186,3,o),
(259,0,c),
(265,13,o),
(274,39,o),
(271,53,c),
(247,59,o),
(211,65,o),
(184,65,c),
(97,65,l),
(72,60,o),
(49,53,o),
(14,48,c),
(11,34,o),
(14,13,o),
(21,0,c)
);
},
{
closed = 1;
nodes = (
(182,42,l),
(182,658,l),
(95,658,l),
(95,42,l)
);
},
{
closed = 1;
nodes = (
(609,0,l),
(616,13,o),
(619,34,o),
(616,48,c),
(581,53,o),
(552,61,o),
(527,66,c),
(459,66,l),
(450,0,l)
);
},
{
closed = 1;
nodes = (
(547,27,l),
(309,446,l),
(234,392,l),
(450,0,l)
);
},
{
closed = 1;
nodes = (
(184,635,l),
(211,635,o),
(246,646,o),
(270,652,c),
(273,666,o),
(270,687,o),
(264,700,c),
(191,697,o),
(94,697,o),
(21,700,c),
(14,687,o),
(11,665,o),
(14,651,c),
(49,646,o),
(72,640,o),
(97,635,c)
);
},
{
closed = 1;
nodes = (
(503,635,ls),
(530,635,o),
(577,646,o),
(601,652,c),
(604,666,o),
(601,687,o),
(595,700,c),
(522,697,o),
(425,697,o),
(352,700,c),
(345,687,o),
(342,665,o),
(345,651,c),
(380,646,o),
(403,640,o),
(428,635,c)
);
}
);
width = 630;
}
);
unicode = 75;
},
{
glyphname = L;
lastChange = "2023-04-03 13:59:45 +0000";
layers = (
{
layerId = m01;
shapes = (
{
closed = 1;
nodes = (
(537,0,l),
(548,22,l),
(555,73,o),
(557,186,o),
(555,197,c),
(545,207,o),
(527,211,o),
(505,202,c),
(457,65,l),
(184,65,l),
(97,65,l),
(72,52,o),
(49,53,o),
(14,48,c),
(11,34,o),
(14,13,o),
(21,0,c)
);
},
{
closed = 1;
nodes = (
(14,687,o),
(11,663,o),
(14,649,c),
(49,644,o),
(72,640,o),
(97,635,c),
(184,635,l),
(211,635,o),
(247,645,o),
(271,651,c),
(274,665,o),
(271,687,o),
(265,700,c),
(192,697,o),
(94,697,o),
(21,700,c)
);
},
{
closed = 1;
nodes = (
(99,453,o),
(100,247,o),
(97,42,c),
(184,42,l),
(184,658,l),
(97,658,l)
);
}
);
width = 580;
}
);
unicode = 76;
},
{
glyphname = M;
lastChange = "2023-04-03 16:47:16 +0000";
layers = (
{
hints = (
{
origin = (4,9);
target = (4,8);
type = Stem;
}
);
layerId = m01;
shapes = (
{
closed = 1;
nodes = (
(751,691,l),
(679,700,l),
(461,25,l),
(535,18,l)
);
},
{
closed = 1;
nodes = (
(107,3,o),
(199,3,o),
(272,0,c),
(278,13,o),
(287,39,o),
(284,53,c),
(260,59,o),
(212,65,o),
(185,65,cs),
(110,65,l),
(85,60,o),
(62,53,o),
(27,48,c),
(24,34,o),
(27,13,o),
(34,0,c)
);
},
{
closed = 1;
nodes = (
(181,40,l),
(280,678,l),
(208,680,l),
(106,40,l)
);
},
{
closed = 1;
nodes = (
(477,0,o),
(506,6,o),
(535,18,c),
(489,105,l),
(485,203,l),
(319,700,l),
(272,660,l),
(273,526,l),
(448,0,l)
);
},
{
closed = 1;
nodes = (
(766,3,o),
(861,3,o),
(934,0,c),
(940,13,o),
(943,38,o),
(940,52,c),
(916,58,o),
(889,65,o),
(862,65,c),
(775,65,l),
(750,60,o),
(721,53,o),
(686,53,c),
(683,39,o),
(686,13,o),
(693,0,c)
);
},
{
closed = 1;
nodes = (
(277,637,l),
(305,657,l),
(319,700,l),
(246,697,o),
(186,699,o),
(113,702,c),
(106,689,o),
(103,674,o),
(106,660,c),
(141,660,o),
(177,642,o),
(202,637,c)
);
},
{
closed = 1;
nodes = (
(863,52,l),
(810,682,l),
(723,682,l),
(776,52,l)
);
},
{
closed = 1;
nodes = (
(814,635,l),
(841,635,o),
(866,652,o),
(890,658,c),
(893,672,o),
(890,687,o),
(884,700,c),
(811,697,o),
(752,697,o),
(679,700,c),
(683,657,l),
(718,657,o),
(702,640,o),
(727,635,c)
);
}
);
width = 970;
}
);
unicode = 77;
},
{
glyphname = N;
lastChange = "2023-04-03 16:10:49 +0000";
layers = (
{
hints = (
{
origin = (1,9);
place = (118, 75);
type = Stem;
},
{
origin = (2,0);
place = (193, 89);
type = Stem;
},
{
origin = (3,3);
place = (673, -89);
type = Stem;
}
);
layerId = m01;
shapes = (
{
closed = 1;
nodes = (
(623,-1,o),
(644,3,o),
(673,19,c),
(608,79,l),
(550,206,l),
(231,699,l),
(158,696,o),
(115,696,o),
(42,699,c),
(35,686,o),
(32,664,o),
(35,650,c),
(70,645,o),
(93,639,o),
(118,634,c),
(179,670,l),
(238,541,l),
(585,-1,l)
);
},
{
closed = 1;
nodes = (
(115,2,o),
(207,2,o),
(280,-1,c),
(286,12,o),
(295,38,o),
(292,52,c),
(268,58,o),
(220,64,o),
(193,64,cs),
(118,64,l),
(93,59,o),
(70,52,o),
(35,47,c),
(32,33,o),
(35,12,o),
(42,-1,c)
);
},
{
closed = 1;
nodes = (
(193,41,l),
(193,683,l),
(118,683,l),
(118,41,l)
);
},
{
closed = 1;
nodes = (
(673,657,l),
(598,657,l),
(598,34,l),
(673,19,l)
);
},
{
closed = 1;
nodes = (
(673,634,ls),
(700,634,o),
(747,645,o),
(771,651,c),
(774,665,o),
(771,686,o),
(765,699,c),
(692,696,o),
(595,696,o),
(522,699,c),
(515,686,o),
(512,664,o),
(515,650,c),
(550,645,o),
(573,639,o),
(598,634,c)
);
}
);
width = 790;
}
);
unicode = 78;
},
{
glyphname = O;
lastChange = "2023-04-01 12:26:44 +0000";
layers = (
{
hints = (
{
origin = (0,11);
place = (31, 87);
type = Stem;
},
{
origin = (1,5);
place = (506, 87);
type = Stem;
},
{
horizontal = 1;
place = (700, -65);
place = (700, -65);
type = Stem;
},
{
horizontal = 1;
place = (0, 65);
place = (0, 65);
type = Stem;
}
);
layerId = m01;
shapes = (
{
closed = 1;
nodes = (
(31,154,o),
(137,-1,o),
(293,0,cs),
(493,2,o),
(593,147,o),
(593,399,cs),
(593,589,o),
(499,700,o),
(343,700,cs),
(156,700,o),
(31,536,o),
(31,346,cs)
);
},
{
closed = 1;
nodes = (
(118,436,o),
(169,598,o),
(235,620,cs),
(382,683,o),
(506,589,o),
(506,363,cs),
(506,312,o),
(509,166,o),
(433,94,cs),
(355,30,o),
(235,62,o),
(169,166,cs),
(135,219,o),
(118,287,o),
(118,363,cs)
);
}
);
width = 630;
}
);
unicode = 79;
},
{
glyphname = P;
lastChange = "2023-04-03 14:49:55 +0000";
layers = (
{
layerId = m01;
shapes = (
{
closed = 0;
nodes = (
(184,403,l),
(184,634,l)
);
},
{
closed = 1;
nodes = (
(94,3,o),
(186,3,o),
(259,0,c),
(265,13,o),
(274,39,o),
(271,53,c),
(247,59,o),
(211,65,o),
(184,65,cs),
(97,65,l),
(72,60,o),
(49,53,o),
(14,48,c),
(11,34,o),
(14,13,o),
(21,0,c)
);
},
{
closed = 1;
nodes = (
(97,42,l),
(184,42,l),
(184,658,l),
(97,658,l)
);
},
{
closed = 1;
nodes = (
(304,637,o),
(397,622,o),
(408,541,cs),
(422,433,o),
(432,346,o),
(274,335,cs),
(143,326,l),
(143,270,l),
(222,259,o),
(314,252,o),
(389,290,cs),
(480,336,o),
(508,483,o),
(506,537,cs),
(503,623,o),
(454,700,o),
(302,701,cs),
(240,701,o),
(87,697,o),
(14,700,c),
(7,687,o),
(4,665,o),
(7,651,c),
(42,646,o),
(76,634,o),
(101,629,c),
(179,634,l)
);
},
{
closed = 0;
nodes = (
(184,403,l),
(184,634,l)
);
},
{
closed = 1;
nodes = (
(94,3,o),
(186,3,o),
(259,0,c),
(265,13,o),
(274,39,o),
(271,53,c),
(247,59,o),
(211,65,o),
(184,65,cs),
(97,65,l),
(72,60,o),
(49,53,o),
(14,48,c),
(11,34,o),
(14,13,o),
(21,0,c)
);
},
{
closed = 1;
nodes = (
(97,42,l),
(184,42,l),
(184,658,l),
(97,658,l)
);
},
{
closed = 1;
nodes = (
(304,637,o),
(397,622,o),
(408,541,cs),
(422,433,o),
(432,346,o),
(274,335,cs),
(143,326,l),
(143,270,l),
(222,259,o),
(314,252,o),
(389,290,cs),
(480,336,o),
(508,483,o),
(506,537,cs),
(503,623,o),
(454,700,o),
(302,701,cs),
(240,701,o),
(87,697,o),
(14,700,c),
(7,687,o),
(4,665,o),
(7,651,c),
(42,646,o),
(76,634,o),
(101,629,c),
(179,634,l)
);
}
);
width = 530;
}
);
unicode = 80;
},
{
glyphname = Q;
lastChange = "2023-04-03 15:22:17 +0000";
layers = (
{
hints = (
{
origin = (1,12);
place = (243, 87);
type = Stem;
}
);
layerId = m01;
shapes = (
{
closed = 1;
nodes = (
(493,2,o),
(593,147,o),
(593,399,cs),
(593,589,o),
(499,700,o),
(343,700,cs),
(156,700,o),
(31,536,o),
(31,346,cs),
(31,154,o),
(137,-1,o),
(293,0,cs)
);
},
{
closed = 1;
nodes = (
(420,-153,o),
(509,-114,o),
(570,-90,c),
(568,-72,o),
(561,-58,o),
(551,-49,c),
(511,-54,o),
(470,-87,o),
(395,-45,cs),
(352,-21,o),
(343,12,o),
(330,30,c),
(243,30,l),
(269,-3,o),
(296,-73,o),
(330,-95,cs)
);
},
{
closed = 1;
nodes = (
(355,30,o),
(235,62,o),
(169,166,cs),
(135,219,o),
(118,287,o),
(118,363,cs),
(118,436,o),
(169,598,o),
(235,620,cs),
(382,683,o),
(506,589,o),
(506,363,cs),
(506,312,o),
(509,166,o),
(433,94,cs)
);
}
);
width = 630;
}
);
unicode = 81;
},
{
glyphname = R;
lastChange = "2023-04-03 15:17:55 +0000";
layers = (
{
layerId = m01;
shapes = (
{
closed = 0;
nodes = (
(203,421,l),
(203,634,l)
);
},
{
closed = 1;
nodes = (
(113,3,o),
(205,3,o),
(278,0,c),
(284,13,o),
(293,39,o),
(290,53,c),
(266,59,o),
(230,65,o),
(203,65,cs),
(116,65,l),
(91,60,o),
(68,53,o),
(33,48,c),
(30,34,o),
(33,13,o),
(40,0,c)
);
},
{
closed = 1;
nodes = (
(116,42,l),
(203,42,l),
(203,658,l),
(116,658,l)
);
},
{
closed = 1;
nodes = (
(323,637,o),
(409,622,o),
(427,541,cs),
(447,449,o),
(454,380,o),
(293,387,cs),
(162,393,l),
(162,337,l),
(241,326,o),
(333,304,o),
(408,342,cs),
(499,388,o),
(527,483,o),
(525,537,cs),
(522,623,o),
(473,700,o),
(321,701,cs),
(259,701,o),
(106,697,o),
(33,700,c),
(26,687,o),
(23,665,o),
(26,651,c),
(61,646,o),
(95,634,o),
(120,629,c),
(198,634,l)
);
},
{
closed = 1;
nodes = (
(424,0,l),
(511,42,l),
(395,353,l),
(308,353,l)
);
},
{
closed = 0;
nodes = (
(33,48,l),
(30,34,o),
(33,13,o),
(40,0,c)
);
},
{
closed = 1;
nodes = (
(590,13,o),
(593,34,o),
(590,48,c),
(555,53,o),
(526,61,o),
(501,66,c),
(433,61,l),
(424,0,l),
(497,3,o),
(510,3,o),
(583,0,c)
);
}
);
width = 600;
}
);
unicode = 82;
},
{
glyphname = S;
lastChange = "2023-04-03 16:56:31 +0000";
layers = (
{
hints = (
{
horizontal = 1;
place = (700, -55);
place = (700, -55);
type = Stem;
},
{
horizontal = 1;
place = (0, 55);
place = (0, 55);
type = Stem;
}
);
layerId = m01;
shapes = (
{
closed = 1;
nodes = (
(141,0,o),
(74,11,o),
(15,55,c),
(44,206,l),
(63,215,o),
(88,215,o),
(107,206,c),
(117,81,l),
(129,62,o),
(308,38,o),
(368,91,cs),
(404,122,o),
(400,186,o),
(368,270,cs),
(330,368,o),
(27,303,o),
(27,466,cs),
(27,657,o),
(128,700,o),
(287,700,cs),
(340,700,o),
(408,693,o),
(466,650,c),
(437,528,l),
(418,520,o),
(400,520,o),
(381,528,c),
(371,627,l),
(360,646,o),
(218,652,o),
(179,632,cs),
(134,610,o),
(106,556,o),
(107,483,cs),
(109,310,o),
(451,529,o),
(466,168,cs),
(471,56,o),
(390,0,o),
(209,0,c)
);
}
);
width = 500;
}
);
unicode = 83;
},
{
glyphname = T;
lastChange = "2023-04-03 14:30:48 +0000";
layers = (
{
layerId = m01;
shapes = (
{
closed = 1;
nodes = (
(235,3,o),
(352,3,o),
(425,0,c),
(431,13,o),
(440,39,o),
(437,53,c),
(411,53,o),
(369,65,o),
(342,65,c),
(342,635,l),
(506,635,l),
(515,601,o),
(516,558,o),
(521,524,c),
(537,521,o),
(555,521,o),
(572,524,c),
(570,579,o),
(577,645,o),
(579,700,c),
(510,697,o),
(368,698,o),
(298,698,cs),
(229,698,o),
(87,697,o),
(18,700,c),
(20,645,o),
(25,581,o),
(23,526,c),
(40,523,o),
(58,523,o),
(74,526,c),
(79,560,o),
(82,601,o),
(91,635,c),
(255,635,l),
(255,65,l),
(230,60,o),
(190,53,o),
(155,48,c),
(152,34,o),
(155,13,o),
(162,0,c)
);
}
);
width = 600;
}
);
unicode = 84;
},
{
glyphname = U;
lastChange = "2023-04-03 15:32:55 +0000";
layers = (
{
hints = (
{
origin = (0,2);
target = (0,3);
type = Stem;
},
{
origin = (1,2);
target = (1,3);
type = Stem;
}
);
layerId = m01;
shapes = (
{
closed = 1;
nodes = (
(62,647,o),
(85,640,o),
(110,635,c),
(197,635,ls),
(224,635,o),
(260,641,o),
(284,647,c),
(287,661,o),
(278,687,o),
(272,700,c),
(199,697,o),
(107,697,o),
(34,700,c),
(27,687,o),
(24,666,o),
(27,652,c)
);
},
{
closed = 1;
nodes = (
(467,658,o),
(503,640,o),
(528,635,c),
(603,635,ls),
(630,635,o),
(655,652,o),
(679,658,c),
(682,672,o),
(679,687,o),
(673,700,c),
(600,697,o),
(512,697,o),
(439,700,c),
(432,687,o),
(429,672,o),
(432,658,c)
);
},
{
closed = 1;
nodes = (
(199,579,o),
(194,403,o),
(194,363,cs),
(194,287,o),
(199,188,o),
(233,135,cs),
(299,31,o),
(400,20,o),
(478,84,c),
(540,148,o),
(530,312,o),
(528,635,c),
(603,635,l),
(603,147,o),
(628,0,o),
(334,0,cs),
(174,0,o),
(107,154,o),
(107,346,cs),
(107,418,o),
(110,578,o),
(110,635,c),
(197,635,l)
);
}
);
width = 700;
}
);
unicode = 85;
},
{
glyphname = V;
lastChange = "2023-04-03 15:09:50 +0000";
layers = (
{
hints = (
{
origin = (0,15);
target = (0,0);
type = Stem;
},
{
origin = (1,5);
target = (1,6);
type = Stem;
},
{
place = (279, 87);
place = (279, 87);
type = Stem;
},
{
place = (366, -75);
place = (366, -75);
type = Stem;
}
);
layerId = m01;
shapes = (
{
closed = 1;
nodes = (
(180,635,ls),
(207,635,o),
(243,641,o),
(267,647,c),
(270,661,o),
(261,687,o),
(255,700,c),
(182,697,o),
(90,697,o),
(17,700,c),
(10,687,o),
(7,666,o),
(10,652,c),
(45,647,o),
(68,640,o),
(93,635,c)
);
},
{
closed = 1;
nodes = (
(415,687,o),
(412,672,o),
(415,658,c),
(450,658,o),
(486,640,o),
(511,635,c),
(586,635,l),
(613,635,o),
(638,652,o),
(662,658,c),
(665,672,o),
(662,687,o),
(656,700,c),
(583,697,o),
(495,697,o),
(422,700,c)
);
},
{
closed = 1;
nodes = (
(86,659,l),
(267,0,l),
(296,0,o),
(325,6,o),
(354,18,c),
(308,105,l),
(304,203,l),
(178,659,l)
);
},
{
closed = 1;
nodes = (
(514,664,l),
(280,25,l),
(354,18,l),
(588,662,l)
);
}
);
width = 680;
}
);
unicode = 86;
},
{
glyphname = W;
lastChange = "2023-04-03 16:51:09 +0000";
layers = (
{
layerId = m01;
shapes = (
{
closed = 1;
nodes = (
(239,82,l),
(245,177,l),
(192,637,l),
(217,642,o),
(246,649,o),
(281,649,c),
(284,663,o),
(281,689,o),
(274,702,c),
(201,699,o),
(106,699,o),
(33,702,c),
(27,689,o),
(24,664,o),
(27,650,c),
(51,644,o),
(78,637,o),
(105,637,c),
(169,0,l),
(212,1,o),
(245,3,o),
(288,14,c),
(469,589,l),
(473,497,l),
(648,0,l),
(691,1,o),
(724,3,o),
(767,14,c),
(857,637,l),
(882,642,o),
(905,649,o),
(940,654,c),
(943,668,o),
(940,689,o),
(933,702,c),
(860,699,o),
(768,699,o),
(695,702,c),
(689,689,o),
(680,663,o),
(683,649,c),
(707,643,o),
(755,637,o),
(782,637,c),
(695,74,l),
(694,176,l),
(510,700,l),
(481,700,o),
(452,694,o),
(423,682,c)
);
},
{
closed = 0;
nodes = (
(648,0,l)
);
}
);
width = 970;
}
);
unicode = 87;
},
{
glyphname = X;
lastChange = "2023-04-03 16:32:55 +0000";
layers = (
{
layerId = m01;
shapes = (
{
closed = 1;
nodes = (
(188,635,ls),
(215,635,o),
(251,641,o),
(275,647,c),
(278,661,o),
(269,687,o),
(263,700,c),
(190,697,o),
(98,697,o),
(25,700,c),
(18,687,o),
(15,666,o),
(18,652,c),
(53,647,o),
(76,640,o),
(101,635,c)
);
},
{
closed = 1;
nodes = (
(348,687,o),
(345,672,o),
(348,658,c),
(383,658,o),
(419,640,o),
(444,635,c),
(519,635,l),
(546,635,o),
(571,652,o),
(595,658,c),
(598,672,o),
(595,687,o),
(589,700,c),
(516,697,o),
(428,697,o),
(355,700,c)
);
},
{
closed = 1;
nodes = (
(424,60,o),
(401,53,o),
(366,48,c),
(363,34,o),
(366,13,o),
(373,0,c),
(446,3,o),
(538,3,o),
(611,0,c),
(617,13,o),
(626,39,o),
(623,53,c),
(599,59,o),
(563,65,o),
(536,65,cs),
(449,65,l)
);
},
{
closed = 1;
nodes = (
(80,3,o),
(168,3,o),
(241,0,c),
(247,13,o),
(250,28,o),
(247,42,c),
(223,48,o),
(198,65,o),
(171,65,c),
(96,65,l),
(71,60,o),
(35,42,o),
(0,42,c),
(-3,28,o),
(0,13,o),
(7,0,c)
);
},
{
closed = 1;
nodes = (
(188,635,l),
(536,65,l),
(449,65,l),
(101,635,l)
);
},
{
closed = 1;
nodes = (
(519,635,l),
(171,65,l),
(96,65,l),
(444,635,l)
);
}
);
width = 640;
}
);
unicode = 88;
},
{
glyphname = Y;
lastChange = "2023-04-03 15:00:59 +0000";
layers = (
{
hints = (
{
origin = (2,15);
target = (2,0);
type = Stem;
},
{
origin = (1,11);
target = (1,8);
type = Stem;
},
{
origin = (3,6);
place = (564, -75);
type = Stem;
},
{
origin = (1,11);
place = (279, 75);
type = Stem;
}
);
layerId = m01;
shapes = (
{
closed = 1;
nodes = (
(366,262,l),
(186,647,l),
(99,647,l),
(279,262,l)
);
},
{
closed = 1;
nodes = (
(259,3,o),
(376,3,o),
(449,0,c),
(455,13,o),
(464,39,o),
(461,53,c),
(435,53,o),
(393,65,o),
(366,65,c),
(366,334,l),
(279,262,l),
(279,65,l),
(254,60,o),
(214,53,o),
(179,48,c),
(176,34,o),
(179,13,o),
(186,0,c)
);
},
{
closed = 1;
nodes = (
(192,635,ls),
(219,635,o),
(255,641,o),
(279,647,c),
(282,661,o),
(273,687,o),
(267,700,c),
(194,697,o),
(102,697,o),
(29,700,c),
(22,687,o),
(19,666,o),
(22,652,c),
(57,647,o),
(80,640,o),
(105,635,c)
);
},
{
closed = 1;
nodes = (
(393,687,o),
(390,672,o),
(393,658,c),
(428,658,o),
(464,640,o),
(489,635,c),
(564,635,l),
(591,635,o),
(616,652,o),
(640,658,c),
(643,672,o),
(640,687,o),
(634,700,c),
(561,697,o),
(473,697,o),
(400,700,c)
);
},
{
closed = 1;
nodes = (
(279,262,l),
(354,262,l),
(577,658,l),
(501,658,l)
);
}
);
width = 660;
}
);
unicode = 89;
},
{
glyphname = Z;
lastChange = "2023-04-03 16:43:03 +0000";
layers = (
{
hints = (
{
origin = (0,15);
place = (25, 87);
type = Stem;
},
{
origin = (0,1);
place = (494, -87);
type = Stem;
},
{
horizontal = 1;
origin = (0,27);
place = (700, -55);
type = Stem;
},
{
horizontal = 1;
origin = (0,14);
place = (0, 55);
type = Stem;
}
);
layerId = m01;
shapes = (
{
closed = 1;
nodes = (
(485,700,l),
(494,645,l),
(112,55,l),
(202,55,o),
(318,63,o),
(408,55,c),
(415,114,o),
(422,134,o),
(424,197,c),
(444,205,o),
(461,205,o),
(481,197,c),
(495,39,l),
(485,0,l),
(33,0,l),
(25,55,l),
(408,645,l),
(318,645,o),
(203,649,o),
(112,645,c),
(102,579,o),
(102,567,o),
(102,500,c),
(82,492,o),
(61,492,o),
(38,500,c),
(25,661,l),
(36,700,l),
(212,700,l)
);
}
);
width = 520;
}
);
unicode = 90;
},
{
glyphname = a;
lastChange = "2023-04-03 11:41:23 +0000";
layers = (
{
hints = (
{
origin = (0,11);
target = (0,26);
type = Stem;
}
);
layerId = m01;
shapes = (
{
closed = 1;
nodes = (
(87,337,o),
(99,337,o),
(114,339,c),
(126,364,o),
(127,397,o),
(141,430,c),
(188,444,o),
(236,438,o),
(283,421,c),
(306,395,o),
(319,356,o),
(319,250,c),
(319,80,l),
(319,44,o),
(331,19,o),
(349,7,cs),
(375,-11,o),
(395,4,o),
(411,11,c),
(489,48,l),
(492,64,o),
(489,75,o),
(479,86,c),
(456,79,o),
(433,72,o),
(406,74,c),
(406,247,l),
(406,288,o),
(406,403,o),
(349,461,cs),
(296,514,o),
(160,509,o),
(46,449,c),
(52,412,o),
(60,376,o),
(72,339,c)
);
},
{
closed = 1;
nodes = (
(167,294,o),
(13,235,o),
(24,97,cs),
(29,36,o),
(100,0,o),
(138,0,cs),
(204,0,o),
(277,26,o),
(355,116,c),
(352,150,l),
(286,112,o),
(258,77,o),
(180,77,cs),
(139,77,o),
(89,157,o),
(147,212,cs),
(177,240,o),
(285,246,o),
(352,253,c),
(350,294,l)
);
}
);
width = 500;
}
);
unicode = 97;
},
{
glyphname = b;
lastChange = "2023-04-01 16:48:18 +0000";
layers = (
{
hints = (
{
origin = (2,5);
target = (1,5);
type = Stem;
},
{
origin = (0,20);
place = (91, 87);
type = Stem;
}
);
layerId = m01;
shapes = (
{
closed = 1;
nodes = (
(87,98,o),
(73,54,o),
(50,21,c),
(50,9,o),
(60,0,o),
(76,0,c),
(107,21,o),
(160,66,o),
(180,103,c),
(180,700,l),
(126,700,o),
(60,682,o),
(7,663,c),
(4,650,o),
(8,641,o),
(14,628,c),
(43,628,o),
(71,626,o),
(94,615,c),
(90,536,l),
(91,134,l)
);
},
{
closed = 1;
nodes = (
(121,129,o),
(122,-1,o),
(240,0,cs),
(392,1,o),
(487,105,o),
(487,285,cs),
(487,421,o),
(396,500,o),
(278,500,cs),
(136,500,o),
(121,402,o),
(121,266,cs)
);
},
{
closed = 1;
nodes = (
(157,311,o),
(158,407,o),
(198,423,cs),
(307,468,o),
(402,421,o),
(402,259,cs),
(402,223,o),
(404,115,o),
(346,80,cs),
(287,45,o),
(206,72,o),
(166,134,c),
(157,259,l)
);
}
);
width = 510;
}
);
unicode = 98;
},
{
glyphname = c;
lastChange = "2023-04-01 15:33:43 +0000";
layers = (
{
hints = (
{
place = (20, 87);
place = (20, 87);
type = Stem;
},
{
horizontal = 1;
place = (500, -60);
place = (500, -60);
type = Stem;
},
{
horizontal = 1;
place = (0, 66);
place = (0, 66);
type = Stem;
},
{
place = (381, 85);
place = (381, 85);
type = Stem;
}
);
layerId = m01;
shapes = (
{
closed = 1;
nodes = (
(330,432,l),
(320,446,o),
(212,431,o),
(178,417,cs),
(138,401,o),
(107,311,o),
(107,259,cs),
(107,205,o),
(122,170,o),
(145,134,cs),
(185,72,o),
(265,45,o),
(337,84,cs),
(421,129,l),
(433,125,o),
(440,117,o),
(444,105,c),
(382,37,o),
(312,0,o),
(219,0,c),
(101,0,o),
(20,110,o),
(20,247,cs),
(20,383,o),
(115,500,o),
(257,500,c),
(317,500,o),
(377,495,o),
(429,464,c),
(403,307,l),
(386,301,o),
(356,301,o),
(339,307,c)
);
}
);
width = 470;
}
);
unicode = 99;
},
{
glyphname = d;
lastChange = "2023-04-03 11:41:56 +0000";
layers = (
{
hints = (
{
place = (20, 87);
place = (20, 87);
type = Stem;
}
);
layerId = m01;
shapes = (
{
closed = 1;
nodes = (
(1,109,o),
(84,-2,o),
(202,-1,cs),
(255,-1,o),
(301,40,o),
(323,84,c),
(339,109,o),
(398,310,o),
(387,370,cs),
(371,462,o),
(332,499,o),
(238,499,cs),
(96,499,o),
(1,382,o),
(1,246,cs)
);
},
{
closed = 1;
nodes = (
(88,310,o),
(112,387,o),
(148,412,cs),
(197,446,o),
(301,448,o),
(317,434,c),
(331,407,o),
(323,172,o),
(321,148,c),
(319,137,o),
(193,30,o),
(126,133,cs),
(103,169,o),
(88,204,o),
(88,258,cs)
);
},
{
closed = 1;
nodes = (
(394,0,o),
(460,23,o),
(496,51,c),
(501,63,o),
(494,82,o),
(485,87,c),
(464,77,o),
(431,70,o),
(410,68,c),
(407,370,o),
(410,686,o),
(410,698,c),
(356,698,o),
(290,680,o),
(237,661,c),
(234,648,o),
(238,639,o),
(244,626,c),
(273,626,o),
(301,624,o),
(324,613,c),
(319,502,ls),
(315,419,o),
(318,347,o),
(323,61,c),
(324,51,o),
(326,0,o),
(356,0,cs)
);
}
);
width = 510;
}
);
unicode = 100;
},
{
glyphname = e;
lastChange = "2023-04-01 16:04:33 +0000";
layers = (
{
layerId = m01;
shapes = (
{
closed = 1;
nodes = (
(449,247,l),
(86,247,l),
(86,311,l),
(399,311,l),
(399,363,o),
(350,486,o),
(178,417,cs),
(138,401,o),
(107,311,o),
(107,259,cs),
(107,205,o),
(122,170,o),
(145,134,cs),
(185,72,o),
(265,45,o),
(337,84,cs),
(421,129,l),
(433,125,o),
(440,117,o),
(444,105,c),
(382,37,o),
(312,0,o),
(219,0,c),
(101,0,o),
(20,110,o),
(20,247,cs),
(20,383,o),
(115,500,o),
(257,500,c),
(400,500,o),
(474,446,o),
(474,265,c)
);
}
);
width = 490;
},
{
associatedMasterId = m01;
layerId = "8ABD6580-E3DC-4D61-BC0F-FCADD84B1D5A";
name = "1 Apr 23, 20:01";
shapes = (
{
closed = 1;
nodes = (
(467,255,o),
(463,247,o),
(449,247,c),
(86,247,l),
(86,311,l),
(378,311,l),
(378,363,o),
(339,473,o),
(178,424,cs),
(138,412,o),
(107,311,o),
(107,259,cs),
(107,205,o),
(122,170,o),
(145,134,cs),
(185,72,o),
(265,45,o),
(337,84,cs),
(421,129,l),
(433,125,o),
(440,117,o),
(444,105,c),
(382,37,o),
(312,0,o),
(219,0,c),
(101,0,o),
(20,110,o),
(20,247,cs),
(20,383,o),
(115,500,o),
(257,500,c),
(400,500,o),
(456,420,o),
(467,265,c)
);
}
);
width = 490;
}
);
unicode = 101;
},
{
glyphname = f;
lastChange = "2023-04-03 12:54:26 +0000";
layers = (
{
hints = (
{
origin = (1,9);
target = (1,8);
type = Stem;
}
);
layerId = m01;
shapes = (
{
closed = 1;
nodes = (
(185,37,o),
(185,472,o),
(185,479,cs),
(177,634,o),
(173,730,o),
(208,744,cs),
(242,758,o),
(339,761,o),
(349,747,c),
(359,649,l),
(376,643,o),
(393,643,o),
(410,649,c),
(434,773,l),
(382,804,o),
(313,800,o),
(253,800,c),
(87,800,o),
(90,700,o),
(98,478,c),
(99,33,l),
(185,31,l)
);
},
{
closed = 1;
nodes = (
(104,3,o),
(214,3,o),
(287,0,c),
(293,13,o),
(296,28,o),
(293,42,c),
(269,48,o),
(212,59,o),
(185,59,c),
(98,59,l),
(73,54,o),
(62,42,o),
(24,42,c),
(21,28,o),
(24,13,o),
(31,0,c)
);
},
{
closed = 1;
nodes = (
(79,451,o),
(242,441,o),
(296,441,c),
(302,459,o),
(310,482,o),
(306,500,c),
(194,500,l),
(107,500,l),
(76,500,o),
(55,497,o),
(33,490,c),
(32,484,o),
(33,464,o),
(34,458,c)
);
}
);
width = 300;
}
);
unicode = 102;
},
{
glyphname = g;
lastChange = "2023-04-03 12:30:55 +0000";
layers = (
{
layerId = m01;
shapes = (
{
closed = 1;
nodes = (
(193,-221,o),
(348,-191,o),
(424,-133,cs),
(475,-94,o),
(495,-11,o),
(468,50,cs),
(429,138,o),
(212,89,o),
(189,117,cs),
(168,142,o),
(196,175,o),
(199,204,c),
(164,212,l),
(153,163,o),
(110,171,o),
(103,110,cs),
(93,23,o),
(276,42,o),
(330,33,cs),
(372,26,o),
(418,-7,o),
(377,-94,cs),
(355,-141,o),
(159,-142,o),
(129,-102,cs),
(102,-66,o),
(98,-23,o),
(123,12,cs),
(140,36,o),
(158,47,o),
(179,65,c),
(151,91,l),
(107,44,o),
(48,33,o),
(26,-19,cs),
(3,-74,o),
(44,-156,o),
(102,-181,cs)
);
},
{
closed = 1;
nodes = (
(334,192,o),
(429,266,o),
(421,367,cs),
(413,450,o),
(330,509,o),
(235,501,cs),
(108,490,o),
(34,417,o),
(42,310,cs),
(50,225,o),
(142,175,o),
(238,183,cs)
);
},
{
closed = 1;
nodes = (
(202,242,o),
(171,247,o),
(151,271,cs),
(124,303,o),
(115,363,o),
(138,403,cs),
(166,452,o),
(231,447,o),
(264,436,cs),
(304,423,o),
(355,381,o),
(333,303,cs),
(318,250,o),
(277,249,o),
(240,246,cs)
);
},
{
closed = 1;
nodes = (
(407,457,o),
(455,463,o),
(501,487,c),
(502,524,o),
(493,538,o),
(463,550,c),
(408,529,o),
(374,501,o),
(336,469,c),
(360,447,l)
);
}
);
width = 490;
}
);
unicode = 103;
},
{
glyphname = h;
lastChange = "2023-04-03 12:05:03 +0000";
layers = (
{
layerId = m01;
shapes = (
{
closed = 1;
nodes = (
(13,28,o),
(16,13,o),
(23,0,c),
(96,3,o),
(168,3,o),
(241,0,c),
(247,13,o),
(250,28,o),
(247,42,c),
(223,48,o),
(204,59,o),
(177,59,c),
(90,59,l),
(65,54,o),
(54,42,o),
(16,42,c)
);
},
{
closed = 1;
nodes = (
(302,28,o),
(305,13,o),
(312,0,c),
(385,3,o),
(457,3,o),
(530,0,c),
(536,13,o),
(539,28,o),
(536,42,c),
(512,48,o),
(493,59,o),
(466,59,c),
(379,59,l),
(354,54,o),
(343,42,o),
(305,42,c)
);
},
{
closed = 1;
nodes = (
(464,44,l),
(465,144,o),
(465,370,o),
(445,423,c),
(425,477,o),
(376,500,o),
(319,500,cs),
(272,500,o),
(203,455,o),
(137,411,c),
(147,370,l),
(204,396,o),
(234,415,o),
(272,422,cs),
(316,430,o),
(350,413,o),
(362,366,cs),
(378,304,o),
(376,144,o),
(379,44,c)
);
},
{
closed = 1;
nodes = (
(177,35,l),
(174,344,o),
(177,688,o),
(177,700,c),
(123,700,o),
(57,682,o),
(4,663,c),
(1,650,o),
(5,641,o),
(11,628,c),
(40,628,o),
(68,626,o),
(91,615,c),
(86,504,l),
(85,418,o),
(85,344,o),
(91,34,c)
);
}
);
width = 560;
}
);
unicode = 104;
},
{
glyphname = i;
lastChange = "2023-04-01 12:22:27 +0000";
layers = (
{
hints = (
{
origin = (0,12);
place = (97, 87);
type = Stem;
}
);
layerId = m01;
shapes = (
{
closed = 1;
nodes = (
(20,28,o),
(23,13,o),
(30,0,c),
(103,3,o),
(175,3,o),
(248,0,c),
(254,13,o),
(257,28,o),
(254,42,c),
(230,48,o),
(211,59,o),
(184,59,c),
(97,59,l),
(72,54,o),
(61,42,o),
(23,42,c)
);
},
{
closed = 1;
nodes = (
(184,35,l),
(186,144,o),
(184,488,o),
(184,500,c),
(130,500,o),
(69,482,o),
(16,463,c),
(13,450,o),
(17,441,o),
(23,428,c),
(52,428,o),
(80,426,o),
(103,415,c),
(98,304,l),
(97,218,o),
(97,144,o),
(98,34,c)
);
},
{
closed = 1;
nodes = (
(68,606,o),
(107,566,o),
(136,566,cs),
(172,566,o),
(193,605,o),
(193,648,cs),
(193,681,o),
(172,700,o),
(145,700,cs),
(111,700,o),
(68,673,o),
(68,638,cs)
);
}
);
width = 270;
}
);
unicode = 105;
},
{
glyphname = j;
lastChange = "2023-04-03 14:08:10 +0000";
layers = (
{
hints = (
{
origin = (1,15);
place = (71, 87);
type = Stem;
}
);
layerId = m01;
shapes = (
{
closed = 0;
nodes = (
(71,34,l),
(157,35,l)
);
},
{
closed = 1;
nodes = (
(160,144,o),
(157,488,o),
(157,500,c),
(103,500,o),
(42,482,o),
(-11,463,c),
(-14,450,o),
(-10,441,o),
(-4,428,c),
(25,428,o),
(53,426,o),
(76,415,c),
(71,304,l),
(70,218,o),
(71,144,o),
(71,34,cs),
(71,-1,o),
(51,-39,o),
(31,-78,cs),
(6,-128,o),
(-29,-159,o),
(-36,-169,c),
(-34,-184,o),
(-21,-194,o),
(-13,-204,c),
(18,-195,o),
(75,-153,o),
(110,-109,cs),
(144,-67,o),
(155,-27,o),
(157,35,cs)
);
},
{
closed = 1;
nodes = (
(42,606,o),
(81,566,o),
(110,566,cs),
(146,566,o),
(167,605,o),
(167,648,cs),
(167,681,o),
(146,700,o),
(119,700,cs),
(85,700,o),
(42,673,o),
(42,638,cs)
);
}
);
width = 200;
}
);
unicode = 106;
},
{
glyphname = k;
lastChange = "2023-04-03 12:55:23 +0000";
layers = (
{
hints = (
{
origin = (4,15);
place = (377, 75);
type = Stem;
},
{
horizontal = 1;
origin = (3,4);
place = (292, -55);
type = Stem;
},
{
origin = (1,9);
target = (1,8);
type = Stem;
}
);
layerId = m01;
shapes = (
{
closed = 1;
nodes = (
(182,35,l),
(179,344,o),
(184,788,o),
(184,800,c),
(130,800,o),
(64,782,o),
(11,763,c),
(8,750,o),
(12,741,o),
(18,728,c),
(47,728,o),
(75,726,o),
(98,715,c),
(91,504,l),
(90,418,o),
(90,344,o),
(96,34,c)
);
},
{
closed = 1;
nodes = (
(103,3,o),
(175,3,o),
(248,0,c),
(254,13,o),
(257,28,o),
(254,42,c),
(230,48,o),
(211,59,o),
(184,59,c),
(97,59,l),
(72,54,o),
(61,42,o),
(23,42,c),
(20,28,o),
(23,13,o),
(30,0,c)
);
},
{
closed = 1;
nodes = (
(508,0,o),
(537,5,o),
(568,17,c),
(562,53,l),
(512,62,o),
(448,47,o),
(413,84,cs),
(356,145,o),
(343,225,o),
(319,314,c),
(257,286,l),
(311,85,o),
(325,0,o),
(425,0,cs)
);
},
{
closed = 1;
nodes = (
(323,278,l),
(470,463,l),
(396,462,l),
(274,326,l),
(157,292,l),
(158,241,l)
);
},
{
closed = 1;
nodes = (
(452,441,l),
(476,445,o),
(500,448,o),
(519,463,c),
(522,477,o),
(519,487,o),
(513,500,c),
(440,497,o),
(383,497,o),
(310,500,c),
(303,487,o),
(300,477,o),
(303,463,c),
(331,462,o),
(354,453,o),
(377,441,c)
);
}
);
width = 570;
}
);
unicode = 107;
},
{
glyphname = l;
lastChange = "2023-04-03 12:52:12 +0000";
layers = (
{
hints = (
{
origin = (0,12);
place = (108, 87);
type = Stem;
}
);
layerId = m01;
shapes = (
{
closed = 1;
nodes = (
(31,28,o),
(34,13,o),
(41,0,c),
(114,3,o),
(186,3,o),
(259,0,c),
(265,13,o),
(268,28,o),
(265,42,c),
(241,48,o),
(222,59,o),
(195,59,c),
(108,59,l),
(83,54,o),
(72,42,o),
(34,42,c)
);
},
{
closed = 1;
nodes = (
(193,35,l),
(190,344,o),
(195,788,o),
(195,800,c),
(141,800,o),
(75,782,o),
(22,763,c),
(19,750,o),
(23,741,o),
(29,728,c),
(58,728,o),
(86,726,o),
(109,715,c),
(102,504,l),
(101,418,o),
(101,344,o),
(107,34,c)
);
}
);
width = 290;
}
);
unicode = 108;
},
{
glyphname = m;
lastChange = "2023-04-01 12:27:00 +0000";
layers = (
{
hints = (
{
place = (126, 87);
place = (126, 87);
type = Stem;
},
{
place = (415, 87);
place = (415, 87);
type = Stem;
},
{
place = (704, 87);
place = (704, 87);
type = Stem;
}
);
layerId = m01;
shapes = (
{
closed = 1;
nodes = (
(22,28,o),
(25,13,o),
(32,0,c),
(105,3,o),
(177,3,o),
(250,0,c),
(256,13,o),
(259,28,o),
(256,42,c),
(232,48,o),
(213,59,o),
(186,59,c),
(99,59,l),
(74,54,o),
(63,42,o),
(25,42,c)
);
},
{
closed = 1;
nodes = (
(311,28,o),
(314,13,o),
(321,0,c),
(394,3,o),
(466,3,o),
(539,0,c),
(545,13,o),
(548,28,o),
(545,42,c),
(521,48,o),
(502,59,o),
(475,59,c),
(388,59,l),
(363,54,o),
(352,42,o),
(314,42,c)
);
},
{
closed = 1;
nodes = (
(185,35,l),
(187,144,o),
(186,218,o),
(185,304,c),
(182,371,o),
(177,487,o),
(164,500,c),
(110,500,o),
(75,488,o),
(25,470,c),
(25,457,o),
(25,444,o),
(29,431,c),
(58,431,o),
(81,426,o),
(104,415,c),
(99,304,l),
(98,218,o),
(98,144,o),
(99,34,c)
);
},
{
closed = 1;
nodes = (
(473,44,l),
(474,144,o),
(474,370,o),
(454,423,c),
(434,477,o),
(385,500,o),
(328,500,cs),
(281,500,o),
(212,455,o),
(146,411,c),
(156,370,l),
(213,396,o),
(243,415,o),
(281,422,cs),
(325,430,o),
(359,413,o),
(371,366,cs),
(387,304,o),
(385,144,o),
(388,44,c)
);
},
{
closed = 1;
nodes = (
(600,28,o),
(603,13,o),
(610,0,c),
(683,3,o),
(755,3,o),
(828,0,c),
(834,13,o),
(837,28,o),
(834,42,c),
(810,48,o),
(791,59,o),
(764,59,c),
(677,59,l),
(652,54,o),
(641,42,o),
(603,42,c)
);
},
{
closed = 1;
nodes = (
(763,44,l),
(764,144,o),
(764,370,o),
(744,423,c),
(724,477,o),
(675,500,o),
(618,500,cs),
(571,500,o),
(502,455,o),
(436,411,c),
(446,370,l),
(503,396,o),
(533,415,o),
(571,422,cs),
(615,430,o),
(649,413,o),
(661,366,cs),
(677,304,o),
(675,144,o),
(678,44,c)
);
}
);
width = 850;
}
);
unicode = 109;
},
{
glyphname = n;
lastChange = "2023-04-03 12:41:05 +0000";
layers = (
{
hints = (
{
origin = (0,12);
target = (0,11);
type = Stem;
},
{
origin = (1,12);
target = (1,11);
type = Stem;
}
);
layerId = m01;
shapes = (
{
closed = 1;
nodes = (
(20,28,o),
(23,13,o),
(30,0,c),
(103,3,o),
(175,3,o),
(248,0,c),
(254,13,o),
(257,28,o),
(254,42,c),
(230,48,o),
(211,59,o),
(184,59,c),
(97,59,l),
(72,54,o),
(61,42,o),
(23,42,c)
);
},
{
closed = 1;
nodes = (
(311,34,o),
(312,13,o),
(319,0,c),
(392,3,o),
(464,3,o),
(537,0,c),
(543,13,o),
(546,28,o),
(543,42,c),
(519,48,o),
(500,59,o),
(473,59,c),
(386,59,l),
(361,54,o),
(352,48,o),
(314,48,c)
);
},
{
closed = 1;
nodes = (
(183,35,l),
(185,144,o),
(184,218,o),
(183,304,c),
(180,371,o),
(175,487,o),
(162,500,c),
(108,500,o),
(73,488,o),
(23,470,c),
(23,457,o),
(23,444,o),
(27,431,c),
(56,431,o),
(79,426,o),
(102,415,c),
(97,304,l),
(96,218,o),
(96,144,o),
(97,34,c)
);
},
{
closed = 1;
nodes = (
(471,44,l),
(472,144,o),
(472,370,o),
(452,423,c),
(432,477,o),
(383,500,o),
(326,500,cs),
(279,500,o),
(210,455,o),
(144,411,c),
(154,370,l),
(211,396,o),
(241,415,o),
(279,422,cs),
(323,430,o),
(357,413,o),
(369,366,cs),
(385,304,o),
(383,144,o),
(386,44,c)
);
}
);
width = 560;
}
);
unicode = 110;
},
{
glyphname = o;
lastChange = "2023-04-01 12:27:16 +0000";
layers = (
{
hints = (
{
origin = (1,5);
place = (381, 87);
type = Stem;
},
{
origin = (0,11);
place = (20, 87);
type = Stem;
},
{
horizontal = 1;
place = (0, 65);
place = (0, 65);
type = Stem;
},
{
horizontal = 1;
place = (500, -65);
place = (500, -65);
type = Stem;
}
);
layerId = m01;
shapes = (
{
closed = 1;
nodes = (
(20,110,o),
(101,-1,o),
(219,0,cs),
(371,1,o),
(466,105,o),
(466,285,cs),
(466,421,o),
(375,500,o),
(257,500,cs),
(115,500,o),
(20,383,o),
(20,247,cs)
);
},
{
closed = 1;
nodes = (
(107,311,o),
(137,407,o),
(177,423,cs),
(286,468,o),
(381,421,o),
(381,259,cs),
(381,223,o),
(383,115,o),
(325,80,cs),
(266,45,o),
(185,72,o),
(145,134,cs),
(122,170,o),
(107,205,o),
(107,259,cs)
);
}
);
width = 490;
}
);
unicode = 111;
},
{
glyphname = p;
lastChange = "2023-04-03 11:49:14 +0000";
layers = (
{
hints = (
{
origin = (0,12);
target = (0,11);
type = Stem;
}
);
layerId = m01;
shapes = (
{
closed = 1;
nodes = (
(6,-171,o),
(9,-186,o),
(16,-199,c),
(89,-196,o),
(199,-196,o),
(272,-199,c),
(278,-186,o),
(281,-171,o),
(278,-157,c),
(254,-151,o),
(197,-140,o),
(170,-140,c),
(83,-140,l),
(58,-145,o),
(47,-157,o),
(9,-157,c)
);
},
{
closed = 1;
nodes = (
(168,-168,l),
(168,304,l),
(168,485,o),
(154,435,o),
(147,500,c),
(93,500,o),
(55,488,o),
(5,470,c),
(5,457,o),
(5,444,o),
(9,431,c),
(38,431,o),
(61,426,o),
(84,415,c),
(79,304,l),
(78,218,o),
(82,-58,o),
(83,-168,c)
);
},
{
closed = 1;
nodes = (
(109,129,o),
(115,-1,o),
(233,0,cs),
(385,1,o),
(480,105,o),
(480,285,cs),
(480,421,o),
(389,500,o),
(271,500,cs),
(129,500,o),
(109,402,o),
(109,266,cs)
);
},
{
closed = 1;
nodes = (
(150,311,o),
(151,407,o),
(191,423,cs),
(300,468,o),
(395,421,o),
(395,259,cs),
(395,223,o),
(397,115,o),
(339,80,cs),
(280,45,o),
(199,72,o),
(159,134,c),
(150,259,l)
);
}
);
width = 500;
}
);
unicode = 112;
},
{
glyphname = q;
lastChange = "2023-04-01 16:32:48 +0000";
layers = (
{
hints = (
{
origin = (1,12);
target = (1,11);
type = Stem;
}
);
layerId = m01;
shapes = (
{
closed = 1;
nodes = (
(447,450,o),
(364,500,o),
(257,500,c),
(115,500,o),
(20,383,o),
(20,247,cs),
(20,110,o),
(101,0,o),
(219,0,c),
(312,0,o),
(382,37,o),
(444,105,c),
(440,117,o),
(433,125,o),
(421,129,c),
(337,84,ls),
(265,45,o),
(185,72,o),
(145,134,cs),
(122,170,o),
(107,205,o),
(107,259,cs),
(107,311,o),
(135,406,o),
(175,422,c),
(257,444,o),
(328,445,o),
(386,383,c),
(386,299,l),
(439,299,l)
);
},
{
closed = 1;
nodes = (
(247,-172,o),
(250,-187,o),
(257,-200,c),
(330,-197,o),
(441,-197,o),
(514,-200,c),
(520,-187,o),
(523,-172,o),
(520,-158,c),
(496,-152,o),
(477,-141,o),
(450,-141,c),
(363,-141,l),
(338,-146,o),
(288,-158,o),
(250,-158,c)
);
},
{
closed = 1;
nodes = (
(450,20,o),
(451,211,o),
(451,402,cs),
(451,430,o),
(482,449,o),
(497,473,c),
(497,487,o),
(491,493,o),
(476,496,c),
(364,420,l),
(363,-171,l),
(450,-171,l)
);
}
);
width = 530;
}
);
unicode = 113;
},
{
glyphname = r;
lastChange = "2023-04-01 17:37:32 +0000";
layers = (
{
hints = (
{
origin = (0,12);
target = (0,11);
type = Stem;
}
);
layerId = m01;
shapes = (
{
closed = 1;
nodes = (
(21,28,o),
(24,13,o),
(31,0,c),
(104,3,o),
(214,3,o),
(287,0,c),
(293,13,o),
(296,28,o),
(293,42,c),
(269,48,o),
(212,59,o),
(185,59,c),
(98,59,l),
(73,54,o),
(62,42,o),
(24,42,c)
);
},
{
closed = 1;
nodes = (
(185,35,l),
(187,144,o),
(186,218,o),
(185,304,c),
(182,371,o),
(177,487,o),
(164,500,c),
(110,500,o),
(75,488,o),
(25,470,c),
(25,457,o),
(25,444,o),
(29,431,c),
(58,431,o),
(81,426,o),
(104,415,c),
(99,304,l),
(98,218,o),
(98,144,o),
(99,34,c)
);
},
{
closed = 1;
nodes = (
(369,278,o),
(382,278,o),
(405,284,c),
(418,355,o),
(416,429,o),
(407,500,c),
(359,500,o),
(327,494,o),
(289,481,c),
(211,452,o),
(175,424,o),
(143,393,c),
(137,371,l),
(194,397,o),
(269,425,o),
(336,422,c),
(346,284,l)
);
}
);
width = 430;
}
);
unicode = 114;
},
{
glyphname = s;
lastChange = "2023-04-03 11:57:36 +0000";
layers = (
{
hints = (
{
horizontal = 1;
origin = (0,19);
place = (500, -55);
type = Stem;
}
);
layerId = m01;
shapes = (
{
closed = 1;
nodes = (
(127,0,o),
(67,8,o),
(15,39,c),
(41,196,l),
(58,202,o),
(88,202,o),
(105,196,c),
(114,71,l),
(124,57,o),
(312,62,o),
(343,89,cs),
(371,114,o),
(350,176,o),
(341,193,cs),
(306,260,o),
(26,196,o),
(26,333,cs),
(26,469,o),
(115,500,o),
(257,500,cs),
(304,500,o),
(364,495,o),
(416,464,c),
(390,338,l),
(373,332,o),
(343,332,o),
(326,338,c),
(317,432,l),
(307,446,o),
(195,450,o),
(161,436,cs),
(121,420,o),
(94,397,o),
(95,345,cs),
(97,237,o),
(416,378,o),
(429,120,cs),
(433,40,o),
(348,0,o),
(187,0,c)
);
}
);
width = 450;
}
);
unicode = 115;
},
{
glyphname = t;
lastChange = "2023-04-03 09:57:42 +0000";
layers = (
{
hints = (
{
origin = (1,7);
target = (1,6);
type = Stem;
}
);
layerId = m01;
shapes = (
{
closed = 1;
nodes = (
(123,579,o),
(105,582,o),
(90,580,c),
(50,451,l),
(50,82,l),
(50,46,o),
(59,21,o),
(77,9,cs),
(103,-9,o),
(101,-4,o),
(250,46,c),
(253,62,o),
(250,73,o),
(240,84,c),
(217,77,o),
(164,74,o),
(137,76,c),
(134,249,l),
(136,573,l)
);
},
{
closed = 1;
nodes = (
(22,451,o),
(185,441,o),
(239,441,c),
(245,459,o),
(253,482,o),
(249,500,c),
(137,500,l),
(50,500,l),
(19,500,o),
(-2,497,o),
(-24,490,c),
(-25,484,o),
(-24,464,o),
(-23,458,c)
);
}
);
width = 270;
}
);
unicode = 116;
},
{
glyphname = u;
lastChange = "2023-04-03 11:49:25 +0000";
layers = (
{
hints = (
{
origin = (2,18);
place = (364, 87);
type = Stem;
},
{
origin = (0,12);
target = (0,9);
type = Stem;
}
);
layerId = m01;
shapes = (
{
closed = 1;
nodes = (
(249,0,o),
(322,26,o),
(400,116,c),
(397,150,l),
(331,112,o),
(303,77,o),
(225,77,cs),
(184,77,o),
(156,129,o),
(156,209,cs),
(156,471,l),
(69,471,l),
(69,97,l),
(74,36,o),
(145,0,o),
(183,0,cs)
);
},
{
closed = 1;
nodes = (
(156,444,l),
(156,500,l),
(-15,500,l),
(-21,487,o),
(-22,473,o),
(-21,460,c),
(69,444,l)
);
},
{
closed = 1;
nodes = (
(420,-11,o),
(440,4,o),
(456,11,c),
(534,48,l),
(537,64,o),
(534,75,o),
(524,86,c),
(501,79,o),
(478,72,o),
(451,74,c),
(451,247,l),
(451,500,l),
(280,500,l),
(274,487,o),
(273,473,o),
(274,460,c),
(364,444,l),
(364,250,l),
(364,80,l),
(364,44,o),
(376,19,o),
(394,7,cs)
);
}
);
width = 530;
}
);
unicode = 117;
},
{
glyphname = v;
lastChange = "2023-04-03 12:32:33 +0000";
layers = (
{
hints = (
{
origin = (1,11);
target = (1,0);
type = Stem;
},
{
origin = (2,11);
target = (2,0);
type = Stem;
},
{
origin = (0,5);
place = (239, 75);
type = Stem;
}
);
layerId = m01;
shapes = (
{
closed = 1;
nodes = (
(222,3,o),
(253,8,o),
(283,17,c),
(456,455,l),
(381,455,l),
(239,78,l),
(235,149,l),
(117,457,l),
(30,457,l),
(192,0,l)
);
},
{
closed = 1;
nodes = (
(123,441,l),
(208,463,l),
(211,477,o),
(208,487,o),
(201,500,c),
(128,497,o),
(45,497,o),
(-28,500,c),
(-34,487,o),
(-37,477,o),
(-34,463,c),
(36,441,l)
);
},
{
closed = 1;
nodes = (
(451,441,l),
(504,463,l),
(507,477,o),
(504,487,o),
(498,500,c),
(425,497,o),
(382,497,o),
(309,500,c),
(302,487,o),
(299,477,o),
(302,463,c),
(376,441,l)
);
}
);
width = 500;
}
);
unicode = 118;
},
{
glyphname = w;
lastChange = "2023-04-03 12:05:19 +0000";
layers = (
{
hints = (
{
origin = (1,11);
target = (1,0);
type = Stem;
},
{
origin = (2,11);
target = (2,0);
type = Stem;
}
);
layerId = m01;
shapes = (
{
closed = 1;
nodes = (
(269,3,o),
(300,8,o),
(330,17,c),
(457,339,l),
(468,366,l),
(477,284,l),
(576,1,l),
(606,4,o),
(637,9,o),
(667,18,c),
(840,459,l),
(765,459,l),
(623,79,l),
(619,150,l),
(580,253,o),
(526,394,o),
(487,497,c),
(472,501,o),
(456,498,o),
(441,492,c),
(422,439,l),
(286,78,l),
(282,149,l),
(164,457,l),
(77,457,l),
(239,0,l)
);
},
{
closed = 1;
nodes = (
(170,441,l),
(255,463,l),
(258,477,o),
(255,487,o),
(248,500,c),
(175,497,o),
(92,497,o),
(19,500,c),
(13,487,o),
(10,477,o),
(13,463,c),
(83,441,l)
);
},
{
closed = 1;
nodes = (
(833,441,l),
(886,463,l),
(889,477,o),
(886,487,o),
(880,500,c),
(807,497,o),
(764,497,o),
(691,500,c),
(684,487,o),
(681,477,o),
(684,463,c),
(758,441,l)
);
}
);
width = 880;
}
);
unicode = 119;
},
{
glyphname = x;
lastChange = "2023-04-03 11:40:56 +0000";
layers = (
{
hints = (
{
origin = (4,11);
target = (4,0);
type = Stem;
},
{
origin = (1,7);
target = (1,6);
type = Stem;
}
);
layerId = m01;
shapes = (
{
closed = 1;
nodes = (
(153,37,l),
(476,464,l),
(401,464,l),
(78,37,l)
);
},
{
closed = 1;
nodes = (
(90,3,o),
(173,3,o),
(246,0,c),
(252,13,o),
(255,23,o),
(252,37,c),
(170,59,l),
(95,59,l),
(10,37,l),
(7,23,o),
(10,13,o),
(17,0,c)
);
},
{
closed = 1;
nodes = (
(397,3,o),
(482,3,o),
(555,0,c),
(561,13,o),
(564,28,o),
(561,42,c),
(537,48,o),
(505,59,o),
(478,59,c),
(391,59,l),
(366,54,o),
(355,42,o),
(317,42,c),
(314,28,o),
(317,13,o),
(324,0,c)
);
},
{
closed = 1;
nodes = (
(490,42,l),
(180,463,l),
(93,463,l),
(403,42,l)
);
},
{
closed = 1;
nodes = (
(196,441,l),
(266,463,l),
(269,477,o),
(266,487,o),
(260,500,c),
(187,497,o),
(104,497,o),
(31,500,c),
(24,487,o),
(21,477,o),
(24,463,c),
(109,441,l)
);
},
{
closed = 1;
nodes = (
(460,442,l),
(513,464,l),
(516,478,o),
(513,488,o),
(507,501,c),
(434,498,o),
(391,498,o),
(318,501,c),
(311,488,o),
(308,478,o),
(311,464,c),
(385,442,l)
);
}
);
width = 540;
}
);
unicode = 120;
},
{
glyphname = y;
lastChange = "2023-04-03 11:09:31 +0000";
layers = (
{
layerId = m01;
shapes = (
{
closed = 1;
nodes = (
(326,0,l),
(506,455,l),
(431,455,l),
(289,78,l),
(285,149,l),
(167,457,l),
(80,457,l),
(242,0,l)
);
},
{
closed = 1;
nodes = (
(126,-187,o),
(208,-221,o),
(244,-178,cs),
(276,-140,o),
(296,-62,o),
(326,0,c),
(262,0,l),
(248,-48,o),
(229,-94,o),
(198,-131,cs),
(174,-160,o),
(141,-136,o),
(111,-135,c),
(102,-146,o),
(100,-157,o),
(100,-169,c)
);
},
{
closed = 1;
nodes = (
(173,441,l),
(258,463,l),
(261,477,o),
(258,487,o),
(251,500,c),
(178,497,o),
(95,497,o),
(22,500,c),
(16,487,o),
(13,477,o),
(16,463,c),
(86,441,l)
);
},
{
closed = 1;
nodes = (
(501,441,l),
(554,463,l),
(557,477,o),
(554,487,o),
(548,500,c),
(475,497,o),
(432,497,o),
(359,500,c),
(352,487,o),
(349,477,o),
(352,463,c),
(426,441,l)
);
}
);
width = 570;
}
);
unicode = 121;
},
{
glyphname = z;
lastChange = "2023-04-03 16:37:24 +0000";
layers = (
{
hints = (
{
origin = (0,3);
target = (0,20);
type = Stem;
},
{
origin = (0,19);
place = (25, 87);
type = Stem;
},
{
horizontal = 1;
origin = (0,16);
place = (0, 55);
type = Stem;
},
{
horizontal = 1;
place = (500, -55);
place = (500, -55);
target = (0,23);
type = Stem;
}
);
layerId = m01;
shapes = (
{
closed = 1;
nodes = (
(416,500,l),
(430,482,o),
(434,472,o),
(434,445,c),
(112,55,l),
(190,55,o),
(268,61,o),
(346,55,c),
(353,108,o),
(361,162,o),
(356,215,c),
(373,221,o),
(403,221,o),
(420,215,c),
(434,28,l),
(396,0,l),
(38,0,l),
(27,17,o),
(25,30,o),
(25,55,c),
(347,445,l),
(269,445,o),
(191,448,o),
(113,445,c),
(104,393,o),
(102,340,o),
(103,288,c),
(86,282,o),
(60,282,o),
(39,288,c),
(25,472,l),
(61,500,l),
(187,500,l)
);
}
);
width = 450;
}
);
unicode = 122;
},
{
glyphname = zero;
lastChange = "2023-04-04 08:26:41 +0000";
layers = (
{
layerId = m01;
shapes = (
{
closed = 1;
nodes = (
(33,114,o),
(135,0,o),
(239,0,cs),
(342,0,o),
(464,132,o),
(464,345,cs),
(464,586,o),
(360,700,o),
(257,700,cs),
(153,700,o),
(33,577,o),
(33,345,cs)
);
},
{
closed = 1;
nodes = (
(111,522,o),
(152,606,o),
(204,622,cs),
(309,655,o),
(385,501,o),
(385,353,cs),
(385,204,o),
(346,102,o),
(320,91,cs),
(169,29,o),
(111,204,o),
(111,353,cs)
);
}
);
width = 500;
}
);
unicode = 48;
},
{
glyphname = one;
lastChange = "2023-04-04 08:18:56 +0000";
layers = (
{
hints = (
{
origin = (1,14);
target = (0,15);
type = Stem;
}
);
layerId = m01;
shapes = (
{
closed = 1;
nodes = (
(279,65,o),
(321,53,o),
(347,53,c),
(350,39,o),
(341,13,o),
(335,0,c),
(262,3,o),
(145,3,o),
(72,0,c),
(65,13,o),
(62,34,o),
(65,48,c),
(100,53,o),
(140,60,o),
(165,65,c),
(252,65,l)
);
},
{
closed = 1;
nodes = (
(252,65,l),
(249,374,o),
(252,687,o),
(252,699,c),
(198,699,o),
(98,660,o),
(45,641,c),
(42,628,o),
(46,619,o),
(52,606,c),
(166,606,l),
(162,505,l),
(161,419,o),
(159,375,o),
(165,65,c)
);
}
);
width = 400;
}
);
unicode = 49;
},
{
glyphname = two;
lastChange = "2023-04-04 08:26:36 +0000";
layers = (
{
layerId = m01;
shapes = (
{
closed = 1;
nodes = (
(279,651,o),
(340,570,o),
(340,492,cs),
(340,326,o),
(160,210,o),
(40,84,c),
(36,55,o),
(40,26,o),
(52,0,c),
(453,0,l),
(385,83,l),
(136,84,l),
(290,202,o),
(578,505,o),
(348,670,cs),
(278,720,o),
(123,696,o),
(57,648,c),
(142,615,l)
);
},
{
closed = 1;
nodes = (
(57,591,o),
(63,530,o),
(73,473,c),
(92,464,o),
(110,467,o),
(129,473,c),
(129,519,o),
(134,569,o),
(142,615,c),
(57,648,l)
);
},
{
closed = 1;
nodes = (
(396,124,o),
(410,164,o),
(418,208,c),
(436,210,o),
(453,207,o),
(471,203,c),
(470,139,o),
(467,74,o),
(461,10,c),
(453,0,l),
(385,83,l)
);
}
);
width = 500;
}
);
unicode = 50;
},
{
glyphname = three;
lastChange = "2023-04-04 08:35:06 +0000";
layers = (
{
layerId = m01;
shapes = (
{
closed = 1;
nodes = (
(145,690,o),
(280,743,o),
(380,645,cs),
(459,567,o),
(425,445,o),
(310,388,c),
(186,404,l),
(317,409,o),
(356,531,o),
(306,585,cs),
(254,641,o),
(191,627,o),
(132,617,c),
(43,651,l)
);
},
{
closed = 1;
nodes = (
(386,380,o),
(450,322,o),
(450,221,cs),
(450,112,o),
(339,0,o),
(208,2,c),
(134,0,o),
(91,14,o),
(39,36,c),
(128,86,l),
(242,56,o),
(356,80,o),
(353,210,cs),
(351,280,o),
(306,342,o),
(187,330,c),
(178,337,l),
(174,359,o),
(178,382,o),
(186,404,c),
(305,393,l)
);
},
{
closed = 1;
nodes = (
(45,600,o),
(51,545,o),
(60,494,c),
(81,486,o),
(101,488,o),
(122,494,c),
(123,534,o),
(127,577,o),
(132,617,c),
(43,651,l)
);
},
{
closed = 1;
nodes = (
(128,86,l),
(117,128,o),
(109,174,o),
(104,216,c),
(86,217,o),
(69,218,o),
(51,212,c),
(44,155,o),
(41,93,o),
(39,36,c)
);
}
);
width = 500;
}
);
unicode = 51;
},
{
glyphname = four;
lastChange = "2023-04-04 08:41:15 +0000";
layers = (
{
layerId = m01;
shapes = (
{
closed = 1;
nodes = (
(434,70,o),
(467,58,o),
(489,53,c),
(492,39,o),
(489,13,o),
(483,0,c),
(410,3,o),
(278,3,o),
(205,0,c),
(198,13,o),
(192,37,o),
(195,51,c),
(230,56,o),
(281,65,o),
(306,70,c),
(407,70,l)
);
},
{
closed = 1;
nodes = (
(407,70,l),
(401,275,o),
(403,480,o),
(402,685,c),
(375,695,o),
(356,700,o),
(322,700,c),
(306,484,o),
(318,286,o),
(306,70,c)
);
},
{
closed = 1;
nodes = (
(526,192,l),
(533,212,o),
(535,234,o),
(531,255,c),
(386,263,o),
(240,258,o),
(95,260,c),
(277,521,l),
(317,611,l),
(322,700,l),
(19,269,l),
(19,238,o),
(22,219,o),
(33,193,c)
);
}
);
width = 550;
}
);
unicode = 52;
},
{
glyphname = five;
lastChange = "2023-04-04 08:48:39 +0000";
layers = (
{
layerId = m01;
shapes = (
{
closed = 1;
nodes = (
(91,345,l),
(251,407,o),
(366,357,o),
(366,242,cs),
(366,142,o),
(332,42,o),
(143,84,c),
(51,36,l),
(101,15,o),
(136,0,o),
(214,0,c),
(386,0,o),
(462,146,o),
(462,267,cs),
(462,398,o),
(329,484,o),
(170,435,c)
);
},
{
closed = 1;
nodes = (
(82,353,l),
(82,692,l),
(91,700,l),
(428,700,l),
(434,693,l),
(430,670,o),
(432,651,o),
(423,629,c),
(170,628,l),
(170,435,l),
(91,345,l)
);
},
{
closed = 1;
nodes = (
(55,90,o),
(58,151,o),
(63,205,c),
(81,211,o),
(102,210,o),
(120,210,c),
(123,170,o),
(131,122,o),
(143,84,c),
(51,36,l)
);
}
);
width = 520;
}
);
unicode = 53;
},
{
glyphname = six;
lastChange = "2023-04-04 08:57:53 +0000";
layers = (
{
layerId = m01;
shapes = (
{
closed = 1;
nodes = (
(127,348,l),
(255,479,o),
(416,429,o),
(450,339,cs),
(533,121,o),
(357,1,o),
(262,0,c),
(123,2,o),
(42,92,o),
(37,285,cs),
(32,486,o),
(157,692,o),
(407,700,c),
(418,688,o),
(423,669,o),
(419,653,c),
(240,621,o),
(132,521,o),
(132,312,cs),
(132,160,o),
(218,16,o),
(342,89,cs),
(403,125,o),
(407,279,o),
(341,324,cs),
(284,363,o),
(215,360,o),
(125,285,c)
);
}
);
width = 520;
}
);
unicode = 54;
},
{
glyphname = seven;
lastChange = "2023-04-04 09:02:34 +0000";
layers = (
{
layerId = m01;
shapes = (
{
closed = 1;
nodes = (
(188,698,o),
(321,697,o),
(457,700,c),
(474,682,o),
(482,666,o),
(485,645,c),
(395,431,o),
(304,214,o),
(210,0,c),
(177,5,o),
(150,11,o),
(122,41,c),
(122,56,l),
(222,243,o),
(316,439,o),
(402,630,c),
(126,630,l),
(53,700,l)
);
},
{
closed = 1;
nodes = (
(45,693,l),
(45,625,o),
(46,556,o),
(53,488,c),
(72,479,o),
(91,482,o),
(110,487,c),
(114,535,o),
(117,582,o),
(126,630,c),
(53,700,l)
);
}
);
width = 520;
}
);
unicode = 55;
},
{
glyphname = eight;
lastChange = "2023-04-04 09:13:31 +0000";
layers = (
{
layerId = m01;
shapes = (
{
closed = 1;
nodes = (
(198,629,o),
(138,611,o),
(142,535,cs),
(148,425,o),
(485,375,o),
(485,231,cs),
(485,109,o),
(386,0,o),
(244,0,c),
(238,76,l),
(343,66,o),
(412,109,o),
(393,211,cs),
(374,315,o),
(51,357,o),
(51,499,cs),
(51,614,o),
(162,700,o),
(260,700,cs),
(327,700,o),
(446,676,o),
(457,574,cs),
(465,500,o),
(419,448,o),
(388,431,cs),
(338,404,o),
(286,354,o),
(209,310,cs),
(187,297,o),
(121,261,o),
(116,200,cs),
(115,185,o),
(116,109,o),
(196,86,cs),
(224,78,o),
(229,77,o),
(238,76,cs),
(319,68,o),
(314,14,o),
(257,2,cs),
(215,-8,o),
(128,15,o),
(100,35,cs),
(56,66,o),
(36,113,o),
(33,164,cs),
(29,232,o),
(82,289,o),
(83,291,cs),
(124,345,o),
(367,420,o),
(374,529,cs),
(378,585,o),
(308,623,o),
(266,625,cs)
);
}
);
width = 530;
}
);
unicode = 56;
},
{
glyphname = nine;
lastChange = "2023-04-04 09:14:55 +0000";
layers = (
{
layerId = m01;
shapes = (
{
closed = 1;
nodes = (
(381,352,l),
(253,221,o),
(92,271,o),
(58,361,cs),
(-25,579,o),
(151,699,o),
(246,700,c),
(385,698,o),
(466,608,o),
(471,415,cs),
(476,214,o),
(351,8,o),
(101,0,c),
(90,12,o),
(85,31,o),
(89,47,c),
(268,79,o),
(376,179,o),
(376,388,cs),
(376,540,o),
(290,684,o),
(166,611,cs),
(105,575,o),
(101,421,o),
(167,376,cs),
(224,337,o),
(293,340,o),
(383,415,c)
);
}
);
width = 530;
}
);
unicode = 57;
},
